<?xml version="1.0" encoding="UTF-8" standalone="no"?>
<!-- Created with Inkscape (http://www.inkscape.org/) -->

<svg
   version="1.1"
   id="svg335"
   xml:space="preserve"
   width="1066.6667"
   height="1066.6667"
   viewBox="0 0 1066.6667 1066.6667"
   sodipodi:docname="airplane-silhouette-45pubicdomainvectors.org.svg"
   inkscape:version="1.1.2 (b8e25be833, 2022-02-05)"
   xmlns:inkscape="http://www.inkscape.org/namespaces/inkscape"
   xmlns:sodipodi="http://sodipodi.sourceforge.net/DTD/sodipodi-0.dtd"
   xmlns="http://www.w3.org/2000/svg"
   xmlns:svg="http://www.w3.org/2000/svg"><defs
     id="defs339"><clipPath
       clipPathUnits="userSpaceOnUse"
       id="clipPath349"><path
         d="M 0,800 H 800 V 0 H 0 Z"
         id="path347" /></clipPath></defs><sodipodi:namedview
     id="namedview337"
     pagecolor="#ffffff"
     bordercolor="#666666"
     borderopacity="1.0"
     inkscape:pageshadow="2"
     inkscape:pageopacity="0.0"
     inkscape:pagecheckerboard="0"
     showgrid="false"
     inkscape:zoom="0.77906244"
     inkscape:cx="533.33337"
     inkscape:cy="533.33337"
     inkscape:window-width="1920"
     inkscape:window-height="1018"
     inkscape:window-x="-8"
     inkscape:window-y="-8"
     inkscape:window-maximized="1"
     inkscape:current-layer="g341" /><g
     id="g341"
     inkscape:groupmode="layer"
     inkscape:label="airplane-silhouette-45pubicdomainvectors.org"
     transform="matrix(1.3333333,0,0,-1.3333333,0,1066.6667)"><g
       id="g343"><g
         id="g345"
         clip-path="url(#clipPath349)"><path
           d="m 753.89,240.858 c 8.995,-0.93 18.497,-1.125 24.298,-0.294 18.66,2.671 19.31,4.79 6.816,22.171 -1.937,2.694 -5.916,7.358 -10.809,12.785 l -42.954,-25.943 z"
           style="fill:#0056c8;fill-opacity:1;fill-rule:nonzero;stroke:none"
           id="path351" /><path
           d="m 743.744,306.824 c -2.356,2.171 -3.87,3.759 -6.162,5.371 l -6.341,-62.618 42.954,25.943 c -9.444,10.476 -22.298,23.799 -30.451,31.304"
           style="fill:#006ad4;fill-opacity:1;fill-rule:nonzero;stroke:none"
           id="path353" /><path
           d="m 731.127,245.055 c 2.386,-0.484 5.67,-1.215 8.34,-1.865 4.072,-0.993 9.162,-1.789 14.423,-2.332 l -22.649,8.719 z"
           style="fill:#0063c3;fill-opacity:1;fill-rule:nonzero;stroke:none"
           id="path355" /><path
           d="m 717.243,248.613 c 4.022,-1.327 6.772,-2.209 7.5,-2.386 0.238,-0.059 2.187,-0.411 4.331,-0.78 0.541,-0.093 1.246,-0.23 2.053,-0.392 l 0.114,4.522 z"
           style="fill:#007fd1;fill-opacity:1;fill-rule:nonzero;stroke:none"
           id="path357" /><path
           d="m 663.127,314.447 -3.121,-46.232 c 13.55,-4.842 43.182,-14.96 57.237,-19.602 l 13.998,0.964 z"
           style="fill:#0097de;fill-opacity:1;fill-rule:nonzero;stroke:none"
           id="path359" /><path
           d="m 731.241,249.577 6.341,62.618 c -2.568,1.806 -6.116,3.642 -12.93,6.354 l -61.525,-4.102 z"
           style="fill:#008dde;fill-opacity:1;fill-rule:nonzero;stroke:none"
           id="path361" /><path
           d="m 724.652,318.549 c -9.653,3.844 -25.86,9.447 -55.117,19.227 l -6.408,-23.329 z"
           style="fill:#169ee2;fill-opacity:1;fill-rule:nonzero;stroke:none"
           id="path363" /><path
           d="m 585.815,392.537 c 0.514,-0.08 1.027,-0.106 1.537,-0.087 l 7.657,19.6 c -5.273,3.037 -18.678,9.17 -29.428,13.561 l 11.387,-31.263 c 3.555,-0.833 6.594,-1.461 8.847,-1.811"
           style="fill:#dae262;fill-opacity:1;fill-rule:nonzero;stroke:none"
           id="path365" /><path
           d="m 669.535,337.776 c -15.848,5.299 -35.532,11.824 -60.072,19.955 l 53.664,-43.284 z"
           style="fill:#74e0e0;fill-opacity:1;fill-rule:nonzero;stroke:none"
           id="path367" /><path
           d="m 597.205,410.533 c -0.248,0.316 -1.022,0.84 -2.196,1.517 l -7.657,-19.6 c 7.856,0.304 14.691,11.937 9.853,18.083"
           style="fill:#afdf7b;fill-opacity:1;fill-rule:nonzero;stroke:none"
           id="path369" /><path
           d="m 637.716,275.991 c 8.532,-2.934 17.208,-5.958 22.067,-7.697 0.073,-0.025 0.151,-0.054 0.223,-0.079 l 3.121,46.232 z"
           style="fill:#009be2;fill-opacity:1;fill-rule:nonzero;stroke:none"
           id="path371" /><path
           d="m 534.272,340.689 17.333,-35.407 c 0.944,-0.318 1.972,-0.646 2.944,-0.932 2.382,-0.706 15.244,-5.052 28.582,-9.659 13.338,-4.606 33.216,-11.418 44.173,-15.139 3.247,-1.103 6.816,-2.323 10.412,-3.561 l 25.411,38.456 z"
           style="fill:#14b4ec;fill-opacity:1;fill-rule:nonzero;stroke:none"
           id="path373" /><path
           d="m 663.127,314.447 -53.664,43.284 c -7.966,2.64 -16.44,5.448 -25.466,8.44 -4.454,1.476 -8.789,2.92 -12.938,4.308 l -36.787,-29.79 z"
           style="fill:#67d7ef;fill-opacity:1;fill-rule:nonzero;stroke:none"
           id="path375" /><path
           d="m 568.732,492.147 c 8.704,4.501 7.803,19.633 -1.297,21.774 -1.372,0.323 -8.769,2.682 -16.439,5.242 -2.951,0.985 -5.783,1.9 -8.195,2.654 l 3.345,-28.203 c 12.362,-2.398 19.85,-2.882 22.586,-1.467"
           style="fill:#e88200;fill-opacity:1;fill-rule:nonzero;stroke:none"
           id="path377" /><path
           d="m 526.775,397.224 c -0.341,6.368 1.721,11.436 5.758,10.043 13.714,-4.735 32.162,-10.046 44.435,-12.919 l -11.387,31.263 c -4.79,1.956 -9.054,3.567 -11.833,4.404 -2.345,0.705 -9.72,3.981 -16.389,7.277 -3.035,1.501 -6.107,2.963 -8.718,4.162 l -24.446,-37.073 z"
           style="fill:#dcf07c;fill-opacity:1;fill-rule:nonzero;stroke:none"
           id="path379" /><path
           d="m 517.264,317.195 c 11.188,-3.845 21.701,-7.418 24.293,-8.251 2.858,-0.917 5.976,-2.038 6.929,-2.491 0.565,-0.267 1.752,-0.709 3.119,-1.171 l -17.333,35.407 z"
           style="fill:#31bded;fill-opacity:1;fill-rule:nonzero;stroke:none"
           id="path381" /><path
           d="m 505.601,321.146 c 2.587,-0.848 5.348,-1.775 8.196,-2.756 1.158,-0.4 2.316,-0.798 3.467,-1.195 l 17.008,23.494 z"
           style="fill:#8bebdb;fill-opacity:1;fill-rule:nonzero;stroke:none"
           id="path383" /><path
           d="m 511.086,485.361 c -4.023,20.092 -2.784,17.217 12.037,13.492 8.984,-2.257 16.649,-4.001 23.023,-5.239 l -3.345,28.203 c -3.857,1.207 -6.636,1.999 -7.089,1.999 -0.736,0 -4.399,1.4 -8.139,3.111 -2.236,1.021 -4.783,2.185 -6.879,3.143 l -20.626,-40.769 z"
           style="fill:#f38900;fill-opacity:1;fill-rule:nonzero;stroke:none"
           id="path385" /><path
           d="m 534.272,340.689 36.787,29.79 c -22.924,7.674 -40.181,13.664 -40.43,14.062 -2.386,3.829 -3.63,8.531 -3.854,12.683 l -22.58,7.157 z"
           style="fill:#b7f3bb;fill-opacity:1;fill-rule:nonzero;stroke:none"
           id="path387" /><path
           d="m 495.579,567.043 c -5.939,31.556 -6.415,37.47 -12.203,40.128 l 6.961,-57.128 z"
           style="fill:#ef3500;fill-opacity:1;fill-rule:nonzero;stroke:none"
           id="path389" /><path
           d="m 498.358,552.385 c -0.756,3.963 -1.746,9.169 -2.712,14.305 -0.023,0.119 -0.044,0.235 -0.067,0.353 l -5.242,-17 z"
           style="fill:#f43800;fill-opacity:1;fill-rule:nonzero;stroke:none"
           id="path391" /><path
           d="m 500.068,489.301 20.626,40.769 c -1.412,0.646 -2.623,1.199 -3.389,1.55 -4.176,1.908 -14.123,5.189 -15.734,5.189 -0.703,0 -1.156,1.002 -1.156,2.556 0,1.406 -0.375,4.426 -0.835,6.713 -0.199,0.988 -0.643,3.286 -1.222,6.307 l -8.021,-2.342 z"
           style="fill:#f77700;fill-opacity:1;fill-rule:nonzero;stroke:none"
           id="path393" /><path
           d="m 504.195,404.381 24.446,37.073 c -3.126,1.433 -5.59,2.487 -6.524,2.767 l -3.117,0.934 -5.496,28.114 c -0.928,4.742 -1.746,8.736 -2.418,12.092 l -11.018,3.94 z"
           style="fill:#f2da4a;fill-opacity:1;fill-rule:nonzero;stroke:none"
           id="path395" /><path
           d="m 483.376,607.171 c -2.018,0.925 -4.682,1.456 -8.446,2.54 -13.169,3.79 -15.034,3.966 -15.625,1.472 -3.83,-16.131 -7.65,-32.1 -11.333,-47.39 l 42.365,-13.75 z"
           style="fill:#fb6100;fill-opacity:1;fill-rule:nonzero;stroke:none"
           id="path397" /><path
           d="m 413.377,374.6 120.895,-33.911 -30.077,63.692 z"
           style="fill:#d8f890;fill-opacity:1;fill-rule:nonzero;stroke:none"
           id="path399" /><path
           d="m 413.377,374.6 21.369,-55.1 c 6.616,0.772 11.704,1.366 13.701,1.6 4.05,0.473 14.378,1.66 22.953,2.636 8.575,0.976 16.544,1.921 17.713,2.102 0.912,0.141 7.665,-1.803 16.488,-4.692 l 28.671,19.543 z"
           style="fill:#c5f5c1;fill-opacity:1;fill-rule:nonzero;stroke:none"
           id="path401" /><path
           d="m 500.068,489.301 -67.315,12.087 c -0.224,-0.904 -0.445,-1.802 -0.666,-2.689 l -9.566,-38.542 -4.576,-4.266 c -5.549,-5.173 -13.343,-12.054 -19.432,-17.248 L 413.377,374.6 Z"
           style="fill:#ffd100;fill-opacity:1;fill-rule:nonzero;stroke:none"
           id="path403" /><path
           d="M 500.068,489.301 413.377,374.6 l 90.818,29.781 z"
           style="fill:#f9ed2d;fill-opacity:1;fill-rule:nonzero;stroke:none"
           id="path405" /><path
           d="m 490.337,550.043 -50.117,-18.25 c -2.645,-10.851 -5.154,-21.069 -7.467,-30.405 l 67.315,-12.087 z"
           style="fill:#fd9d00;fill-opacity:1;fill-rule:nonzero;stroke:none"
           id="path407" /><path
           d="m 447.972,563.793 c -2.673,-11.093 -5.272,-21.825 -7.752,-32 l 50.117,18.25 z"
           style="fill:#ff9300;fill-opacity:1;fill-rule:nonzero;stroke:none"
           id="path409" /><path
           d="m 413.08,287.809 c -3.293,1.835 -5.881,3.379 -7.072,4.253 -0.425,0.31 -0.875,0.644 -1.346,0.999 l -0.425,-3.972 z"
           style="fill:#cbf387;fill-opacity:1;fill-rule:nonzero;stroke:none"
           id="path411" /><path
           d="m 407.143,316.276 c 1.331,0.156 2.685,0.315 4.06,0.474 8.331,0.973 16.743,1.955 23.543,2.75 l -21.369,55.1 z"
           style="fill:#cbf387;fill-opacity:1;fill-rule:nonzero;stroke:none"
           id="path413" /><path
           d="m 442.392,251.764 c 1.653,1.198 2.93,2.97 4.163,5.336 5.063,9.715 2.971,12.204 -19.761,23.504 -4.804,2.389 -9.766,5.005 -13.714,7.205 l -8.843,1.28 z"
           style="fill:#96eaa2;fill-opacity:1;fill-rule:nonzero;stroke:none"
           id="path415" /><path
           d="m 397.203,260.287 c 4.497,-1.824 8.924,-3.422 13.135,-4.713 19.278,-5.908 27.253,-7.293 32.054,-3.81 l -38.155,37.325 z"
           style="fill:#9ae292;fill-opacity:1;fill-rule:nonzero;stroke:none"
           id="path417" /><path
           d="m 413.377,374.6 -14.864,64.043 c -5.088,-4.339 -8.985,-7.502 -9.38,-7.502 -0.51,0 -21.379,6.844 -46.375,15.207 -0.401,0.134 -0.792,0.265 -1.189,0.398 l -27.855,-44.135 z"
           style="fill:#ffce00;fill-opacity:1;fill-rule:nonzero;stroke:none"
           id="path419" /><path
           d="m 310.04,388.412 c 1.82,-0.628 3.639,-1.25 5.457,-1.862 14.231,-4.794 16.344,-9.129 7.48,-15.337 -0.99,-0.694 -4.278,-3.571 -7.306,-6.393 -3.028,-2.824 -6.504,-6.039 -7.723,-7.143 -0.738,-0.668 -2.71,-1.497 -6.546,-2.647 l -13.638,-52.704 c 6.08,0.7 10.834,1.24 13.008,1.475 10.375,1.115 36.711,4.251 41.036,4.887 4.192,0.618 4.957,-1.319 0.907,-2.294 -1.799,-0.433 -2.101,-1.015 -2.101,-4.059 0,-1.953 -0.292,-3.847 -0.649,-4.209 -1.746,-1.768 -0.069,-5.629 2.428,-6.89 l 61.844,-2.147 -9.149,11.473 c -7.516,6.065 -14.929,12.383 -14.459,12.512 0.121,0.033 1.59,0.221 4.063,0.526 l -70.978,89.011 z"
           style="fill:#f0d03c;fill-opacity:1;fill-rule:nonzero;stroke:none"
           id="path421" /><path
           d="m 404.662,293.061 c -2.726,2.045 -6.159,4.746 -9.574,7.501 l 9.149,-11.473 z"
           style="fill:#f6e63a;fill-opacity:1;fill-rule:nonzero;stroke:none"
           id="path423" /><path
           d="M 313.714,402.611 384.692,313.6 c 4.668,0.574 12.918,1.558 22.451,2.676 l 6.234,58.324 z"
           style="fill:#f6e63a;fill-opacity:1;fill-rule:nonzero;stroke:none"
           id="path425" /><path
           d="m 342.393,291.236 c 0.51,-0.257 1.054,-0.408 1.61,-0.408 1.002,0 3.962,-1.77 6.579,-3.933 11.476,-9.488 29.574,-19.696 46.621,-26.608 l 7.034,28.802 z"
           style="fill:#c7df6f;fill-opacity:1;fill-rule:nonzero;stroke:none"
           id="path427" /><path
           d="m 341.569,446.746 c -44.011,14.723 -64.403,21.422 -77.556,25.339 l 49.701,-69.474 z"
           style="fill:#feb200;fill-opacity:1;fill-rule:nonzero;stroke:none"
           id="path429" /><path
           d="m 264.183,227.138 c 2.997,-0.154 5.435,0.641 7.313,2.375 l -8.204,0.308 z"
           style="fill:#c2b266;fill-opacity:1;fill-rule:nonzero;stroke:none"
           id="path431" /><path
           d="m 271.496,229.513 c 2.003,1.848 3.37,4.763 4.092,8.752 0.678,3.738 -0.708,7.218 -5.348,11.472 l -6.948,-19.916 z"
           style="fill:#d3bf53;fill-opacity:1;fill-rule:nonzero;stroke:none"
           id="path433" /><path
           d="m 271.354,402.844 c 12.699,-5.091 25.719,-9.957 38.686,-14.432 l 3.674,14.199 z"
           style="fill:#fb9b00;fill-opacity:1;fill-rule:nonzero;stroke:none"
           id="path435" /><path
           d="m 249.7,342.729 29.825,-41.356 c 2.918,0.338 5.695,0.659 8.239,0.953 l 13.638,52.704 c -7.78,-2.331 -23.245,-5.983 -51.702,-12.301"
           style="fill:#fb9b00;fill-opacity:1;fill-rule:nonzero;stroke:none"
           id="path437" /><path
           d="m 264.013,472.085 c -3.16,0.941 -5.904,1.723 -8.456,2.417 l -34.378,-49.55 c 15.432,-7.501 32.492,-15.021 50.175,-22.108 l 42.36,-0.233 z"
           style="fill:#ffa300;fill-opacity:1;fill-rule:nonzero;stroke:none"
           id="path439" /><path
           d="m 207.569,545.47 c -0.53,2.62 -1.243,5.348 -1.586,6.064 -0.748,1.561 -11.109,5.198 -15.525,5.45 l -0.958,0.055 20.575,-23.065 c -1.12,5.01 -2.123,9.605 -2.506,11.496"
           style="fill:#fd7700;fill-opacity:1;fill-rule:nonzero;stroke:none"
           id="path441" /><path
           d="m 244.042,341.476 c -5.003,-1.107 -9.095,-2.087 -9.095,-2.177 0,-0.091 -0.975,-0.289 -2.165,-0.441 -2.781,-0.352 -23.86,-4.986 -35.079,-7.71 -4.764,-1.157 -10.61,-2.507 -12.992,-3.004 -1.211,-0.251 -4.781,-1.04 -9.53,-2.103 l -10.668,-26.632 68.602,-3.513 c 1.715,0.203 3.371,0.402 4.863,0.582 10.394,1.251 27.585,3.273 41.547,4.895 L 249.7,342.729 c -1.833,-0.407 -3.716,-0.825 -5.658,-1.253"
           style="fill:#f56500;fill-opacity:1;fill-rule:nonzero;stroke:none"
           id="path443" /><path
           d="m 261.678,227.462 c 0.874,-0.174 1.71,-0.283 2.505,-0.324 l -0.891,2.683 z"
           style="fill:#bc5024;fill-opacity:1;fill-rule:nonzero;stroke:none"
           id="path445" /><path
           d="m 263.292,229.821 6.948,19.916 c -5.164,4.737 -14.358,10.432 -29.23,18.513 -9.968,5.416 -32.035,23.311 -30.563,24.783 0.137,0.137 3.951,0.674 8.477,1.196 3.392,0.388 9.058,1.054 14.191,1.667 l -68.602,3.513 z"
           style="fill:#e07000;fill-opacity:1;fill-rule:nonzero;stroke:none"
           id="path447" /><path
           d="m 251.403,475.598 c -1.598,0.41 -3.014,1.168 -4.484,2.438 l -73.265,-7.606 13.088,-27.129 c 9.977,-5.93 21.647,-12.133 34.437,-18.349 l 34.378,49.55 c -1.43,0.388 -2.803,0.75 -4.154,1.096"
           style="fill:#ff8800;fill-opacity:1;fill-rule:nonzero;stroke:none"
           id="path449" /><path
           d="m 246.919,478.036 c -0.787,0.679 -1.59,1.501 -2.444,2.501 -1.906,2.228 -9.487,11.021 -16.848,19.54 l -13.381,15.488 -2.856,12.571 c -0.437,1.921 -0.885,3.911 -1.315,5.838 l -20.575,23.065 -2.19,0.124 -0.264,-4.114 c -0.332,-5.15 -0.599,-5.111 -5.366,0.806 -2.144,2.659 -4.726,5.661 -5.738,6.669 -0.058,0.058 -0.125,0.126 -0.195,0.2 l -2.093,-90.294 z"
           style="fill:#fd7400;fill-opacity:1;fill-rule:nonzero;stroke:none"
           id="path451" /><path
           d="m 257.857,228.411 c 1.236,-0.352 2.41,-0.652 3.506,-0.888 0.106,-0.021 0.21,-0.04 0.315,-0.061 l 1.614,2.359 z"
           style="fill:#c22c00;fill-opacity:1;fill-rule:nonzero;stroke:none"
           id="path453" /><path
           d="m 164.513,299.409 0.542,-11.531 c 13.961,1.712 12.863,1.517 12.792,-1.811 -0.042,-1.931 -0.489,-3.03 -1.234,-3.032 -1.558,-0.004 -0.831,-7.997 0.776,-8.532 0.623,-0.208 2.719,-1.823 4.66,-3.592 16.653,-15.171 55.259,-36.632 75.808,-42.5 l 5.435,1.41 z"
           style="fill:#d54200;fill-opacity:1;fill-rule:nonzero;stroke:none"
           id="path455" /><path
           d="m 175.747,560.724 c -0.802,0.833 -2.416,2.663 -4.194,4.744 l -26.292,-39.437 c 3.304,-7.159 6.075,-13.248 10.281,-22.568 l 4.301,-9.527 -8.129,-0.248 c -8.059,-0.246 -8.131,-0.268 -8.631,-2.599 -0.548,-2.551 -2.984,-8.896 -3.803,-9.902 -0.231,-0.284 -3.226,-1.46 -9.132,-3.579 l 43.506,-7.178 z"
           style="fill:#fa6200;fill-opacity:1;fill-rule:nonzero;stroke:none"
           id="path457" /><path
           d="m 156.602,583.018 c -1.556,1.776 -2.861,3.147 -3.269,3.409 -0.584,0.374 -2.24,2.392 -3.678,4.484 -3.562,5.175 -13.007,9.347 -21.503,11.225 l -1.677,-2.261 z"
           style="fill:#f03600;fill-opacity:1;fill-rule:nonzero;stroke:none"
           id="path459" /><path
           d="m 143.559,446.561 c 0.725,0.075 1.451,0.148 2.176,0.223 14.291,1.453 26.899,2.797 28.017,2.986 1.2,0.201 3.506,-0.597 5.629,-1.947 2.335,-1.487 4.793,-2.995 7.361,-4.522 l -13.088,27.129 z"
           style="fill:#ff7200;fill-opacity:1;fill-rule:nonzero;stroke:none"
           id="path461" /><path
           d="m 175.181,326.041 c -4.592,-1.026 -10.284,-2.309 -16.021,-3.61 -1.989,-0.452 -3.869,-0.878 -5.68,-1.287 l 11.033,-21.735 z"
           style="fill:#fc6300;fill-opacity:1;fill-rule:nonzero;stroke:none"
           id="path463" /><path
           d="m 164.513,299.409 -11.033,21.735 c -14.87,-3.366 -24.811,-5.582 -48.469,-10.81 l -0.061,-27.438 z"
           style="fill:#f23700;fill-opacity:1;fill-rule:nonzero;stroke:none"
           id="path465" /><path
           d="m 104.95,282.896 1.516,-1.836 c 2.189,0.261 4.072,0.488 5.49,0.663 5.716,0.699 14.096,1.671 18.622,2.159 13.479,1.45 15.404,1.672 30.264,3.48 1.54,0.188 2.938,0.36 4.213,0.516 l -0.542,11.531 z"
           style="fill:#db2f00;fill-opacity:1;fill-rule:nonzero;stroke:none"
           id="path467" /><path
           d="m 130.148,477.608 c -4.128,-1.482 -9.678,-3.425 -16.706,-5.848 l -4.28,-29.024 c 1.795,0.216 3.209,0.392 4.093,0.514 3.392,0.466 16.734,1.922 30.304,3.311 l 30.095,23.869 z"
           style="fill:#fa6800;fill-opacity:1;fill-rule:nonzero;stroke:none"
           id="path469" /><path
           d="m 128.152,602.136 c -0.896,0.197 -1.781,0.369 -2.648,0.514 l 0.971,-2.775 z"
           style="fill:#e42300;fill-opacity:1;fill-rule:nonzero;stroke:none"
           id="path471" /><path
           d="m 169.063,568.423 c -2.771,3.334 -5.265,6.258 -5.541,6.496 -0.276,0.238 -2.443,2.771 -4.815,5.629 -0.715,0.863 -1.433,1.704 -2.105,2.47 l -30.127,16.857 -2.602,-26.408 c 10.542,-23.7 15.384,-34.478 18.404,-40.989 1.068,-2.3 2.048,-4.416 2.984,-6.447 l 26.292,39.437 c -0.817,0.957 -1.668,1.965 -2.49,2.955"
           style="fill:#f64d00;fill-opacity:1;fill-rule:nonzero;stroke:none"
           id="path473" /><path
           d="m 104.567,280.832 c 0.654,0.078 1.289,0.154 1.899,0.228 l -1.516,1.836 z"
           style="fill:#ca1500;fill-opacity:1;fill-rule:nonzero;stroke:none"
           id="path475" /><path
           d="m 100.515,280.352 c 1.412,0.166 2.771,0.329 4.052,0.48 l 0.383,2.064 z"
           style="fill:#c80b00;fill-opacity:1;fill-rule:nonzero;stroke:none"
           id="path477" /><path
           d="m 88.632,306.659 c -4.519,-1.022 -9.536,-2.16 -14.353,-3.257 C 41.395,295.92 29.304,293.337 26.055,291.295 l 78.895,-8.399 z"
           style="fill:#e21c00;fill-opacity:1;fill-rule:nonzero;stroke:none"
           id="path479" /><path
           d="m 105.011,310.334 c -0.705,-0.156 -1.419,-0.314 -2.15,-0.476 -2.378,-0.525 -7.798,-1.744 -14.229,-3.199 l 16.318,-23.763 z"
           style="fill:#f24600;fill-opacity:1;fill-rule:nonzero;stroke:none"
           id="path481" /><path
           d="m 125.504,602.65 c -1.546,0.259 -3.032,0.433 -4.414,0.512 l 5.385,-3.287 z"
           style="fill:#db1300;fill-opacity:1;fill-rule:nonzero;stroke:none"
           id="path483" /><path
           d="m 121.09,603.162 c -6.127,0.347 -10.197,-1.166 -8.241,-5.291 0.234,-0.496 0.504,-1.071 0.798,-1.703 l 12.828,3.707 z"
           style="fill:#dd1c00;fill-opacity:1;fill-rule:nonzero;stroke:none"
           id="path485" /><path
           d="m 113.647,596.168 c 1.688,-3.622 4.224,-9.196 6.117,-13.454 1.459,-3.284 2.826,-6.361 4.109,-9.247 l 2.602,26.408 z"
           style="fill:#ed4100;fill-opacity:1;fill-rule:nonzero;stroke:none"
           id="path487" /><path
           d="M 79.477,460.188 C 62.8,454.549 54.84,451.879 50.982,450.434 l 19.035,-12.018 16.234,1.743 c 8.485,0.911 17.462,1.924 22.911,2.577 l 4.28,29.024 c -8.915,-3.074 -20.201,-6.919 -33.965,-11.572"
           style="fill:#f55e00;fill-opacity:1;fill-rule:nonzero;stroke:none"
           id="path489" /><path
           d="m 47.088,447.957 c -0.325,-0.847 0.819,-1.819 3.614,-3.07 2.249,-1.008 6.554,-2.979 9.566,-4.381 l 5.475,-2.548 4.274,0.458 -19.035,12.018 c -4.001,-1.498 -3.587,-1.678 -3.894,-2.477"
           style="fill:#f15700;fill-opacity:1;fill-rule:nonzero;stroke:none"
           id="path491" /><path
           d="m 26.055,291.295 c -2.212,-1.392 -0.325,-2.533 1.891,-4.802 1.858,-1.902 4.079,-3.46 4.935,-3.46 0.856,0 1.557,-0.389 1.557,-0.865 0,-0.478 0.584,-0.867 1.299,-0.867 0.714,0 1.299,-0.339 1.299,-0.752 0,-0.884 8.784,-4.82 12.649,-5.668 1.466,-0.323 5.164,-0.196 8.217,0.285 3.053,0.479 14.125,1.862 24.606,3.076 5.736,0.664 12.3,1.434 18.007,2.11 l 4.435,2.544 z"
           style="fill:#cf1300;fill-opacity:1;fill-rule:nonzero;stroke:none"
           id="path493" /></g></g></g></svg>
