 <svg  version="1.0" xmlns="http://www.w3.org/2000/svg"  width="1551.000000pt" height="501.000000pt" viewBox="0 0 1551.000000 501.000000"  preserveAspectRatio="xMidYMid meet">  <g transform="translate(0.000000,501.000000) scale(0.100000,-0.100000)" fill="#f2eee8" stroke="none"> <path d="M2190 3899 c-13 -5 -28 -15 -32 -22 -4 -7 -8 -368 -8 -803 l0 -791 23 -21 c30 -28 114 -31 146 -4 l21 17 0 799 c0 653 -2 802 -13 813 -17 18 -105 26 -137 12z"/> <path d="M4283 3896 l-33 -15 0 -805 0 -805 22 -15 c34 -24 123 -21 148 4 19 19 20 33 20 399 l0 379 45 55 c73 89 198 167 270 167 44 0 109 -31 145 -70 66 -70 70 -99 70 -524 l0 -377 25 -24 c35 -35 121 -36 154 -1 22 23 22 24 20 390 -1 387 -9 474 -48 556 -62 133 -199 206 -365 198 -97 -5 -174 -33 -248 -89 -29 -21 -56 -39 -60 -39 -5 0 -8 132 -8 293 0 219 -3 298 -12 310 -18 24 -104 32 -145 13z"/> <path d="M10773 3895 c-24 -10 -33 -21 -33 -37 0 -13 0 -374 0 -803 l0 -780 21 -17 c30 -25 119 -24 147 1 l22 18 0 802 0 802 -35 15 c-43 18 -80 17 -122 -1z"/> <path d="M11993 3895 l-33 -14 -2 -287 c-2 -195 -6 -289 -14 -291 -6 -2 -28 10 -48 26 -84 67 -255 100 -364 71 -125 -34 -238 -119 -291 -220 -58 -112 -65 -150 -66 -365 0 -166 3 -209 18 -255 63 -194 148 -286 306 -331 149 -43 293 -7 403 99 25 24 51 41 57 38 6 -4 11 -25 11 -47 0 -56 26 -79 90 -79 37 0 55 5 70 20 20 20 20 33 20 813 0 435 -4 797 -8 804 -20 32 -97 41 -149 18z m-278 -653 c68 -24 120 -60 185 -126 l55 -57 3 -221 c2 -122 1 -233 -3 -245 -3 -13 -36 -54 -74 -92 -149 -149 -299 -173 -404 -64 -71 72 -103 173 -113 348 -13 235 60 401 201 458 53 21 90 21 150 -1z"/> <path d="M1127 3775 l-27 -26 0 -733 0 -733 23 -21 c32 -30 113 -31 151 -1 l26 20 0 318 c0 233 3 320 12 329 9 9 81 12 265 12 163 0 261 4 276 11 48 22 62 94 25 129 -21 19 -34 20 -288 20 -194 0 -269 3 -278 12 -17 17 -17 509 0 526 9 9 88 12 293 12 154 0 285 4 291 8 34 22 43 79 18 117 l-16 25 -372 0 -371 0 -28 -25z"/> <path d="M2656 3779 c-25 -19 -27 -26 -24 -82 3 -57 5 -63 37 -84 61 -41 151 -24 182 35 8 13 14 42 14 64 0 61 -37 88 -119 88 -49 0 -69 -5 -90 -21z"/> <path d="M6620 3785 c-13 -16 -7 -76 15 -135 20 -54 75 -236 141 -465 13 -45 26 -90 54 -180 5 -16 16 -52 24 -80 8 -27 33 -111 56 -185 22 -74 48 -160 56 -190 9 -30 22 -73 29 -95 7 -22 23 -72 35 -111 27 -87 49 -104 142 -104 91 0 119 23 138 112 15 71 64 258 127 488 8 30 19 71 23 91 3 19 10 41 14 47 3 6 10 30 15 54 8 36 47 189 92 361 5 20 13 37 17 37 12 0 35 -43 43 -80 4 -19 15 -57 23 -85 8 -27 21 -75 29 -105 21 -75 115 -414 133 -475 8 -27 19 -66 24 -85 5 -19 16 -57 24 -85 8 -27 26 -90 40 -140 33 -118 51 -135 145 -135 86 0 109 16 135 96 10 33 24 77 31 99 7 22 20 67 30 100 10 33 23 76 30 95 7 19 34 109 60 200 26 91 53 183 60 205 7 22 21 67 30 100 10 33 24 75 31 93 8 18 14 38 14 46 0 7 13 53 29 102 29 92 96 319 106 365 10 43 -15 59 -94 59 -90 0 -99 -11 -145 -185 -19 -73 -92 -331 -112 -400 -8 -27 -19 -66 -24 -85 -5 -19 -16 -57 -24 -85 -8 -27 -21 -75 -29 -105 -8 -30 -32 -113 -52 -185 -20 -71 -40 -147 -45 -168 -4 -21 -10 -41 -14 -44 -12 -12 -38 24 -46 64 -5 21 -29 112 -55 203 -25 91 -55 199 -67 240 -28 104 -35 128 -52 185 -42 146 -101 359 -126 455 -25 96 -41 110 -127 110 -55 0 -67 -4 -88 -25 -14 -13 -25 -33 -25 -44 0 -11 -6 -38 -14 -58 -13 -37 -29 -94 -46 -163 -8 -35 -43 -166 -106 -405 -20 -71 -39 -148 -45 -170 -5 -22 -18 -71 -30 -110 -11 -38 -24 -88 -28 -110 -5 -22 -13 -53 -20 -68 -6 -16 -11 -39 -11 -51 0 -31 -23 -51 -38 -34 -5 7 -20 51 -32 98 -12 47 -35 128 -50 180 -15 52 -35 124 -45 160 -10 36 -23 83 -30 105 -7 22 -21 69 -30 105 -10 36 -23 85 -30 110 -7 25 -20 74 -30 110 -16 61 -28 104 -60 210 -8 25 -17 59 -20 77 -4 18 -15 44 -26 58 -19 23 -27 25 -94 25 -51 0 -76 -4 -85 -15z"/> <path d="M5565 3672 c-68 -6 -75 -19 -75 -144 0 -145 -2 -148 -95 -148 -68 0 -76 -2 -91 -25 -11 -17 -14 -35 -10 -60 10 -53 28 -65 101 -65 104 0 95 37 95 -371 0 -377 5 -428 46 -510 23 -46 89 -109 115 -109 8 0 32 -7 54 -15 105 -37 271 1 295 68 32 94 -8 128 -110 92 -88 -31 -150 -11 -181 59 -17 39 -19 72 -19 402 0 197 0 365 0 372 0 9 36 12 145 12 l144 0 16 30 c18 35 19 60 4 94 -12 25 -13 25 -158 28 l-146 3 -5 127 c-3 69 -7 129 -11 132 -15 15 -79 31 -114 28z"/> <path d="M3358 3386 c-140 -47 -226 -140 -257 -276 -22 -93 -11 -181 35 -300 l17 -45 -37 -58 c-65 -101 -63 -208 5 -282 45 -48 46 -55 19 -80 -40 -36 -90 -122 -105 -179 -14 -55 -13 -65 2 -120 26 -96 96 -170 193 -205 66 -24 215 -50 285 -50 95 0 237 30 315 67 78 36 157 114 190 187 17 38 22 70 23 130 1 70 -3 85 -25 120 -84 131 -175 160 -575 181 -143 7 -178 22 -188 78 -8 42 2 96 20 102 7 3 24 0 37 -7 38 -22 150 -48 202 -49 56 0 150 23 213 52 149 69 236 255 204 436 -9 48 -20 77 -38 96 -14 16 -22 31 -17 36 5 5 42 10 83 12 l74 3 15 41 c13 35 13 47 2 73 l-12 31 -173 0 c-123 0 -186 4 -221 15 -74 22 -205 18 -286 -9z m271 -158 c31 -17 55 -39 76 -73 27 -44 30 -56 30 -134 0 -129 -38 -199 -130 -242 -108 -50 -241 -4 -296 103 -25 48 -27 190 -4 246 50 118 199 164 324 100z m-77 -918 c194 -11 245 -24 277 -69 31 -43 35 -77 16 -129 -32 -84 -84 -125 -190 -148 -112 -25 -274 -11 -350 28 -61 32 -79 62 -79 131 0 56 4 68 35 109 34 45 85 88 104 88 5 0 90 -5 187 -10z"/> <path d="M9015 3391 c-103 -31 -158 -63 -225 -130 -110 -111 -160 -251 -160 -449 0 -257 96 -454 263 -539 69 -34 187 -63 264 -63 84 0 211 32 278 70 85 49 160 131 206 226 21 46 39 91 39 101 0 10 7 40 15 67 22 72 20 252 -4 342 -58 218 -158 323 -355 376 -91 24 -238 23 -321 -1z m278 -154 c85 -31 150 -102 190 -210 15 -42 19 -81 20 -197 1 -126 -2 -154 -21 -211 -42 -124 -111 -201 -209 -236 -48 -16 -165 -17 -212 -1 -94 32 -168 115 -206 232 -15 47 -19 88 -19 210 1 148 1 153 33 228 41 98 104 158 195 188 68 22 161 21 229 -3z"/> <path d="M10295 3393 c-22 -9 -65 -38 -96 -64 -31 -27 -59 -45 -63 -42 -3 4 -6 18 -6 33 0 43 -28 60 -98 60 -42 0 -65 -5 -76 -16 -14 -14 -16 -77 -16 -550 0 -521 0 -534 20 -554 25 -25 114 -28 148 -4 l22 15 0 361 c0 406 -7 365 87 495 52 71 106 116 157 129 14 3 49 -1 79 -11 29 -9 69 -15 88 -13 l34 3 0 69 0 69 -50 18 c-64 22 -177 23 -230 2z"/> <path d="M2660 3361 c-6 -13 -10 -204 -10 -550 0 -518 1 -532 20 -551 25 -25 114 -28 148 -4 l22 15 0 544 c0 625 11 565 -104 565 -54 0 -67 -3 -76 -19z"/> </g> </svg> 